<?xml version="1.0" encoding="UTF-8"?>
<svg width="25px" height="25px" viewBox="0 0 25 25" version="1.1" xmlns="http://www.w3.org/2000/svg" xmlns:xlink="http://www.w3.org/1999/xlink">
    <!-- Generator: Sketch 43.2 (39069) - http://www.bohemiancoding.com/sketch -->
    <title>Admin</title>
    <desc>Created with Sketch.</desc>
    <defs></defs>
    <g id="Page-1" stroke="none" stroke-width="1" fill="none" fill-rule="evenodd">
        <g id="Iconography" transform="translate(-251.000000, -249.000000)" fill-rule="nonzero" fill="#999999">
            <g id="Admin" transform="translate(251.000000, 249.000000)">
                <path d="M21.3266102,3.6579661 C16.4555085,-1.21322034 8.52949153,-1.21322034 3.65838983,3.6579661 C1.94932203,5.3670339 0.780254237,7.51415254 0.277457627,9.86728814 C-0.212033898,12.1585593 -0.0516949153,14.5324576 0.741101695,16.7322034 C0.836355932,16.9963559 1.12779661,17.1333051 1.39186441,17.0381356 C1.65610169,16.9428814 1.79305085,16.6515254 1.69779661,16.3873729 C0.96940678,14.3662712 0.822118644,12.1851695 1.27194915,10.079661 C1.73355932,7.91898305 2.80745763,5.94694915 4.37745763,4.37694915 C8.85211864,-0.0977118644 16.1328814,-0.0977118644 20.6075424,4.37694915 C22.7384746,6.5079661 23.9313559,9.34059322 23.9663559,12.3532203 C24.0013559,15.360339 22.880678,18.2155932 20.8109322,20.3928814 C20.7864407,20.4186441 20.7622034,20.4445763 20.7379661,20.4705085 C20.6950847,20.5163559 20.6522881,20.5622881 20.6075424,20.6070339 C16.1328814,25.0816949 8.85211864,25.0816949 4.37745763,20.6070339 C4.35364407,20.5832203 4.33042373,20.5589831 4.30745763,20.5347458 C4.30627119,20.4877966 4.30525424,20.4415254 4.30525424,20.3959322 C4.30525424,20.2935593 4.30720339,20.1916102 4.3109322,20.09 C4.31220339,20.0560169 4.31474576,20.0223729 4.31644068,19.9884746 C4.31974576,19.9209322 4.32288136,19.8533898 4.32779661,19.7861864 C4.33076271,19.7461017 4.33508475,19.7064407 4.33864407,19.6665254 C4.34398305,19.6059322 4.34898305,19.545339 4.35559322,19.4850847 C4.36025424,19.4425424 4.36635593,19.400339 4.37169492,19.3579661 C4.37889831,19.3007627 4.38576271,19.2433898 4.39423729,19.1864407 C4.40067797,19.1430508 4.40830508,19.1000847 4.41542373,19.0569492 C4.42449153,19.0014407 4.43330508,18.9459322 4.44355932,18.8907627 C4.45161017,18.8471186 4.46084746,18.8038983 4.46966102,18.7605085 C4.48059322,18.7063559 4.49135593,18.6521186 4.50338983,18.5983051 C4.51313559,18.554661 4.52398305,18.5112712 4.53440678,18.4678814 C4.54711864,18.4149153 4.55974576,18.3619492 4.57347458,18.3094068 C4.58491525,18.2658475 4.59728814,18.2226271 4.60932203,18.179322 C4.62381356,18.1274576 4.63822034,18.0755085 4.65372881,18.0239831 C4.66669492,17.9807627 4.68059322,17.9378814 4.69432203,17.895 C4.71059322,17.8440678 4.72686441,17.7930508 4.7440678,17.7425424 C4.75864407,17.6999153 4.77389831,17.6575424 4.78915254,17.6151695 C4.80720339,17.565 4.82533898,17.5148305 4.84432203,17.465 C4.86042373,17.4228814 4.87711864,17.3811864 4.89389831,17.3394068 C4.91364407,17.2901695 4.93355932,17.2409322 4.95423729,17.1921186 C4.97186441,17.1505932 4.99,17.1094068 5.00830508,17.0682203 C5.02974576,17.0198305 5.05144068,16.9716102 5.07381356,16.9237288 C5.09288136,16.8829661 5.11237288,16.8424576 5.13211864,16.8020339 C5.15533898,16.7544915 5.17881356,16.7070339 5.20288136,16.66 C5.22330508,16.6201695 5.2440678,16.5805085 5.26516949,16.5410169 C5.29008475,16.4942373 5.31542373,16.4476271 5.34127119,16.4012712 C5.36305085,16.3622881 5.38508475,16.3234746 5.40745763,16.2849153 C5.4340678,16.2390678 5.46110169,16.1934746 5.48864407,16.1480508 C5.51177966,16.1099153 5.53516949,16.0719492 5.55889831,16.0341525 C5.58720339,15.9892373 5.6159322,15.9445763 5.64508475,15.9002542 C5.66949153,15.8630508 5.6940678,15.8260169 5.7190678,15.7892373 C5.74898305,15.7451695 5.77957627,15.7016102 5.81042373,15.6581356 C5.83610169,15.6219492 5.86177966,15.5858475 5.88805085,15.5501695 C5.91966102,15.5071186 5.95194915,15.4644915 5.98440678,15.4221186 C6.01127119,15.3870339 6.03805085,15.3519492 6.06550847,15.3172881 C6.09881356,15.2751695 6.13288136,15.2335593 6.1670339,15.1921186 C6.19491525,15.1582203 6.22279661,15.124322 6.25127119,15.0908475 C6.28635593,15.049661 6.32220339,15.0090678 6.35813559,14.9685593 C6.38711864,14.9358475 6.4159322,14.9030508 6.44542373,14.8708475 C6.48220339,14.830678 6.51974576,14.7912712 6.55737288,14.7518644 C6.58737288,14.720339 6.61720339,14.6887288 6.64771186,14.6576271 C6.68627119,14.6184746 6.72567797,14.5801695 6.765,14.5416949 C6.79584746,14.5116102 6.82644068,14.4811864 6.85779661,14.4515254 C6.89830508,14.4132203 6.93974576,14.3758475 6.98101695,14.3383898 C7.01254237,14.3098305 7.04364407,14.2809322 7.07559322,14.2527966 C7.11822034,14.2152542 7.16194915,14.1788136 7.20542373,14.1421186 C7.23728814,14.1152542 7.26881356,14.0879661 7.30110169,14.0615254 C7.34610169,14.0247458 7.39220339,13.9890678 7.43813559,13.9531356 C7.47016949,13.9281356 7.50169492,13.9025424 7.5340678,13.8779661 C7.58245763,13.8412712 7.63186441,13.8058475 7.68118644,13.7702542 C7.71228814,13.7477119 7.74279661,13.724661 7.77432203,13.7025424 C7.82872881,13.664322 7.88440678,13.6274576 7.93991525,13.5904237 C7.96728814,13.5722034 7.9940678,13.5533051 8.02161017,13.535339 C8.09398305,13.4883051 8.16762712,13.4427966 8.24177966,13.3978814 C8.25330508,13.3909322 8.26449153,13.3834746 8.27610169,13.3765254 C8.36186441,13.3251695 8.44881356,13.275339 8.53677966,13.2268644 C8.56686441,13.210339 8.59779661,13.1948305 8.62822034,13.1786441 C8.68661017,13.1474576 8.74483051,13.1160169 8.80423729,13.0861864 C8.84228814,13.0670339 8.88127119,13.0490678 8.91966102,13.0305085 C8.96813559,13.0070339 9.01644068,12.9833051 9.06550847,12.960678 C9.98711864,13.8410169 11.2165254,14.3394068 12.4926271,14.3394068 C13.7687288,14.3394068 14.9982203,13.8409322 15.9198305,12.9605085 C17.7188983,13.7931356 19.1913559,15.2871186 19.9907627,17.1038983 C20.1038136,17.3608475 20.4037288,17.4777119 20.6609322,17.3645763 C20.9179661,17.2514407 21.034661,16.9513559 20.9215254,16.6944068 C20.0471186,14.7071186 18.5248305,13.1190678 16.5979661,12.1604237 C17.1570339,11.340339 17.4594915,10.3719492 17.4594915,9.37262712 C17.4594915,6.63389831 15.2313559,4.40576271 12.4926271,4.40576271 C12.2118644,4.40576271 11.9841525,4.63347458 11.9841525,4.91423729 C11.9841525,5.195 12.2118644,5.42271186 12.4926271,5.42271186 C14.670678,5.42271186 16.4425424,7.19466102 16.4425424,9.37262712 C16.4425424,10.3465254 16.0805932,11.284322 15.4234746,12.0130508 C15.4233898,12.0131356 15.4233051,12.0132203 15.4232203,12.0133051 C14.6728814,12.845339 13.6047458,13.3225424 12.4925424,13.3225424 C11.380339,13.3225424 10.3121186,12.845339 9.56186441,12.0133051 C9.56177966,12.0131356 9.56161017,12.0130508 9.56144068,12.0129661 C8.90440678,11.2839831 8.54254237,10.3464407 8.54254237,9.37271186 C8.54254237,8.30966102 8.95872881,7.31237288 9.71449153,6.56474576 C9.91415254,6.36720339 9.91584746,6.04525424 9.71830508,5.84567797 C9.52084746,5.6459322 9.19889831,5.64440678 8.99923729,5.84177966 C8.04898305,6.78161017 7.52559322,8.03559322 7.52559322,9.37237288 C7.52559322,10.370678 7.82728814,11.3383898 8.38542373,12.1580508 C8.38042373,12.1605085 8.37559322,12.1632203 8.37067797,12.1657627 C8.33101695,12.1855932 8.29228814,12.2066102 8.2529661,12.2268644 C8.19271186,12.2580508 8.13228814,12.2890678 8.07288136,12.3215254 C8.03084746,12.3444068 7.98974576,12.3684746 7.94813559,12.3919492 C7.89262712,12.4233898 7.8370339,12.454661 7.78228814,12.4871186 C7.73983051,12.5123729 7.69805085,12.5384746 7.65601695,12.564322 C7.60347458,12.5966949 7.5509322,12.6289831 7.49915254,12.6622881 C7.45686441,12.6894915 7.41533898,12.7174576 7.37355932,12.7452542 C7.32330508,12.7787288 7.27313559,12.8123729 7.22364407,12.8467797 C7.1820339,12.8757627 7.1409322,12.905339 7.09983051,12.9349153 C7.05152542,12.9697458 7.00338983,13.0047458 6.95584746,13.0404237 C6.91508475,13.0710169 6.87483051,13.1020339 6.83466102,13.1332203 C6.78805085,13.1694068 6.74177966,13.2058475 6.69601695,13.2428814 C6.65635593,13.2749153 6.6170339,13.3073729 6.57788136,13.34 C6.53288136,13.3776271 6.48822034,13.415678 6.44398305,13.4541525 C6.40559322,13.4874576 6.36745763,13.5210169 6.32966102,13.555 C6.28601695,13.5942373 6.2429661,13.6338983 6.20016949,13.6738983 C6.16322034,13.7083898 6.12635593,13.7429661 6.08991525,13.7781356 C6.04762712,13.8189831 6.00601695,13.8604237 5.96449153,13.9020339 C5.9290678,13.9375424 5.89364407,13.9729661 5.85889831,14.0089831 C5.81779661,14.0516102 5.77745763,14.095 5.73720339,14.1383898 C5.70355932,14.174661 5.66966102,14.2107627 5.63661017,14.2476271 C5.59635593,14.2923729 5.55720339,14.3380508 5.51788136,14.3835593 C5.48627119,14.4201695 5.45440678,14.4564407 5.42338983,14.4934746 C5.38347458,14.5411864 5.34483051,14.5898305 5.3059322,14.6383051 C5.2770339,14.6744068 5.24754237,14.71 5.21915254,14.7465254 C5.17830508,14.7990678 5.13881356,14.8526271 5.09915254,14.9060169 C5.07423729,14.9395763 5.04864407,14.9725424 5.02423729,15.0064407 C4.9740678,15.0759322 4.92550847,15.1464407 4.87737288,15.2172881 C4.86474576,15.2359322 4.85135593,15.2540678 4.83881356,15.2727966 C4.77889831,15.3622881 4.72067797,15.4527966 4.66398305,15.544322 C4.64440678,15.5759322 4.62601695,15.6082203 4.60686441,15.64 C4.57016949,15.7009322 4.53330508,15.7617797 4.4979661,15.8235593 C4.4759322,15.8621186 4.45508475,15.9013559 4.43364407,15.9402542 C4.40271186,15.9961864 4.37161017,16.0519492 4.34194915,16.1085593 C4.31991525,16.1505085 4.2990678,16.1929661 4.27762712,16.2352542 C4.25,16.2898305 4.22228814,16.344322 4.19576271,16.3994915 C4.17466102,16.4433898 4.15457627,16.4877966 4.13415254,16.5319492 C4.1090678,16.5864407 4.08389831,16.6408475 4.05983051,16.6958475 C4.04,16.7411864 4.02101695,16.7869492 4.00194915,16.8326271 C3.97898305,16.8874576 3.95618644,16.9422881 3.93432203,16.9975424 C3.9159322,17.0439831 3.89830508,17.090678 3.88067797,17.1373729 C3.85983051,17.1927966 3.83923729,17.2483051 3.81940678,17.3041525 C3.80262712,17.3515254 3.78635593,17.3991525 3.77025424,17.4468644 C3.75135593,17.5028814 3.7329661,17.5590678 3.71516949,17.6155932 C3.7,17.6636441 3.68533898,17.7118644 3.6709322,17.7601695 C3.65398305,17.8172034 3.63762712,17.8744068 3.62177966,17.9318644 C3.60838983,17.980339 3.59525424,18.0288983 3.58262712,18.0777119 C3.56762712,18.1357627 3.55338983,18.1940678 3.53949153,18.2525424 C3.52788136,18.3013559 3.51635593,18.3500847 3.50559322,18.3990678 C3.49254237,18.4583051 3.48042373,18.5178814 3.46855932,18.5775424 C3.45881356,18.6263559 3.44889831,18.6751695 3.43991525,18.7242373 C3.42881356,18.7850847 3.41881356,18.8462712 3.40889831,18.9075424 C3.40110169,18.9558475 3.39288136,19.0040678 3.38584746,19.0525424 C3.37661017,19.1157627 3.36881356,19.179322 3.36084746,19.2428814 C3.355,19.29 3.34855932,19.3370339 3.34338983,19.384322 C3.33610169,19.4509322 3.33050847,19.5179661 3.32466102,19.585 C3.32076271,19.629661 3.31610169,19.6741525 3.31288136,19.7190678 C3.30745763,19.7938983 3.30389831,19.8690678 3.30025424,19.944322 C3.29847458,19.9816949 3.29567797,20.0188136 3.29432203,20.0562712 C3.29025424,20.1691525 3.2879661,20.2824576 3.2879661,20.3961864 C3.2879661,20.5189831 3.29211864,20.6350847 3.29711864,20.7633051 C3.29830508,20.7929661 3.30245763,20.8217797 3.30838983,20.8499153 C3.30889831,20.8521186 3.30915254,20.854322 3.30966102,20.8565254 C3.3159322,20.8842373 3.32474576,20.9108475 3.33533898,20.9366102 C3.33635593,20.9391525 3.33728814,20.9416949 3.33838983,20.9442373 C3.34932203,20.969661 3.36237288,20.9938983 3.37711864,21.0169492 C3.37898305,21.0198305 3.38076271,21.0227119 3.38262712,21.0255085 C3.39779661,21.0481356 3.41466102,21.0694068 3.43305085,21.0892373 C3.43440678,21.090678 3.43533898,21.0924576 3.43669492,21.0938983 L3.50381356,21.165339 C3.55449153,21.2195763 3.60516949,21.2736441 3.65805085,21.3264407 C6.09364407,23.7620339 9.29288136,24.9798305 12.4922034,24.9798305 C15.6915254,24.9798305 18.8907627,23.7620339 21.3263559,21.3264407 C21.3792373,21.2736441 21.4299153,21.2194915 21.4805932,21.165339 L21.5477119,21.0938983 C23.8010169,18.7234746 25.0210169,15.615339 24.9829661,12.3417797 C24.9450847,9.06169492 23.6464407,5.97779661 21.3266102,3.6579661 Z" id="Shape"></path>
            </g>
        </g>
    </g>
</svg>