<svg width="18" height="18" viewBox="0 0 18 18" fill="none" xmlns="http://www.w3.org/2000/svg">
<g id="Arrow ">
<path id="Icon" d="M5.84433 13.7498C5.68984 14.1631 5.61259 14.3698 5.65851 14.4882C5.6983 14.5907 5.78611 14.667 5.8932 14.6921C6.01681 14.7211 6.21069 14.6158 6.59846 14.4052L16.4887 9.03322C16.8059 8.86091 16.9646 8.77475 17.0098 8.66627C17.0492 8.57195 17.0431 8.4648 16.9933 8.37555C16.936 8.2729 16.7687 8.20528 16.4339 8.07005L5.99829 3.8543C5.58913 3.68901 5.38456 3.60637 5.26503 3.64917C5.16148 3.68626 5.08289 3.77204 5.05499 3.87843C5.02278 4.00123 5.12297 4.19782 5.32334 4.59098L7.49221 8.84668C7.53146 8.92369 7.55109 8.9622 7.56029 9.00284C7.56844 9.03886 7.57055 9.07598 7.56654 9.11269C7.56201 9.15411 7.54687 9.1946 7.51661 9.27557L5.84433 13.7498Z" fill="white" stroke="#BFC7CB" stroke-linecap="round" stroke-linejoin="round"/>
</g>
</svg>
