<?xml version="1.0" encoding="UTF-8"?>
<svg width="25px" height="24px" viewBox="0 0 25 24" version="1.1" xmlns="http://www.w3.org/2000/svg" xmlns:xlink="http://www.w3.org/1999/xlink">
    <!-- Generator: Sketch 43.2 (39069) - http://www.bohemiancoding.com/sketch -->
    <title>Group 24</title>
    <desc>Created with Sketch.</desc>
    <defs></defs>
    <g id="Page-1" stroke="none" stroke-width="1" fill="none" fill-rule="evenodd">
        <g id="Iconography" transform="translate(-342.000000, -250.000000)" fill-rule="nonzero" fill="#999999">
            <g id="Group-24" transform="translate(342.000000, 250.000000)">
                <path d="M24.2771089,20.1044922 L1.875,20.1044922 L1.87743915,19.6137695 C1.88768357,17.6289063 3.27750997,15.9282227 5.17467912,15.4941406 L5.17467912,9.78369141 C5.17467912,5.42285156 8.71876084,1.875 13.0755666,1.875 C17.4328602,1.875 20.9774298,5.42285156 20.9774298,9.78369141 L20.9774298,15.4941406 C22.8745989,15.9287109 24.2639375,17.6289063 24.2746697,19.6137695 L24.2771089,20.1044922 Z M2.89261245,19.1279297 L23.2594964,19.1279297 C23.0360705,17.7080078 21.8916223,16.5688477 20.430085,16.3886719 L20.0017706,16.3364258 L20.0017706,9.78369141 C20.0017706,5.96142578 16.8947842,2.8515625 13.0755666,2.8515625 C9.25683684,2.8515625 6.15033823,5.96142578 6.15033823,9.78369141 L6.15033823,16.3359375 L5.72202388,16.3881836 C4.2599987,16.5683594 3.11603839,17.7075195 2.89261245,19.1279297 Z" id="Shape"></path>
                <path d="M11.2881591,2.92382813 L10.3125,2.92382813 L10.3125,2.33984375 C10.3125,1.04931641 11.3608457,0 12.6501792,0 C13.9390249,0 14.9873706,1.04931641 14.9873706,2.33984375 L14.9873706,2.9140625 L14.0117115,2.9140625 L14.0117115,2.33984375 C14.0117115,1.58837891 13.4009489,0.9765625 12.6501792,0.9765625 C11.8994095,0.9765625 11.2881591,1.58837891 11.2881591,2.33984375 L11.2881591,2.92382813 Z" id="Shape"></path>
                <path d="M12.4201405,23.1928711 C10.4976042,23.1928711 8.82239752,21.8261719 8.4375,19.9428711 L9.3931581,19.7475586 C9.68585583,21.1782227 10.9586031,22.2167969 12.4201405,22.2167969 C13.9119233,22.2167969 15.1895489,21.152832 15.458343,19.6875 L16.4179037,19.8637695 C16.0642273,21.7929688 14.3831666,23.1928711 12.4201405,23.1928711 Z" id="Shape"></path>
                <rect id="Rectangle-path" x="0.503873728" y="15.737793" width="1.79618843" height="1"></rect>
                <rect id="Rectangle-path" x="7.5" y="15.9375" width="10.2185657" height="1"></rect>
            </g>
        </g>
    </g>
</svg>