<svg width="18" height="18" viewBox="0 0 18 18" fill="none" xmlns="http://www.w3.org/2000/svg">
<path d="M1 5.26667C1 3.77319 1 3.02646 1.29065 2.45603C1.54631 1.95426 1.95426 1.54631 2.45603 1.29065C3.02646 1 3.77319 1 5.26667 1H12.7333C14.2268 1 14.9735 1 15.544 1.29065C16.0457 1.54631 16.4537 1.95426 16.7094 2.45603C17 3.02646 17 3.77319 17 5.26667V12.7333C17 14.2268 17 14.9735 16.7094 15.544C16.4537 16.0457 16.0457 16.4537 15.544 16.7094C14.9735 17 14.2268 17 12.7333 17H5.26667C3.77319 17 3.02646 17 2.45603 16.7094C1.95426 16.4537 1.54631 16.0457 1.29065 15.544C1 14.9735 1 14.2268 1 12.7333V5.26667Z" fill="white" stroke="#00A98B" stroke-linecap="round" stroke-linejoin="round"/>
</svg>
