<svg width="16" height="16" viewBox="0 0 16 16" fill="none" xmlns="http://www.w3.org/2000/svg">
<g clip-path="url(#clip0_5277_9774)">
<path d="M12.8 0H3.2C1.43269 0 0 1.43269 0 3.2V12.8C0 14.5673 1.43269 16 3.2 16H12.8C14.5673 16 16 14.5673 16 12.8V3.2C16 1.43269 14.5673 0 12.8 0Z" fill="#00A98B"/>
<path d="M6.87605 11.5853C6.7844 11.6803 6.65941 11.7333 6.52949 11.7333C6.3996 11.7333 6.27461 11.6803 6.18296 11.5853L3.41544 8.73357C3.1282 8.43763 3.1282 7.95786 3.41544 7.66243L3.762 7.30538C4.04923 7.00944 4.51441 7.00944 4.80165 7.30538L6.52949 9.08557L11.1984 4.2753C11.4857 3.97936 11.9513 3.97936 12.238 4.2753L12.5846 4.63235C12.8718 4.92829 12.8718 5.40806 12.5846 5.70349L6.87605 11.5853Z" fill="white"/>
</g>
<defs>
<clipPath id="clip0_5277_9774">
<rect width="16" height="16" fill="white"/>
</clipPath>
</defs>
</svg>
