<?xml version="1.0" encoding="utf-8"?>
<!-- Generator: Adobe Illustrator 22.0.0, SVG Export Plug-In . SVG Version: 6.00 Build 0)  -->
<svg version="1.1" id="Layer_1" xmlns="http://www.w3.org/2000/svg" xmlns:xlink="http://www.w3.org/1999/xlink" x="0px" y="0px"
	 viewBox="0 0 32 32" enable-background="new 0 0 32 32" xml:space="preserve">
<path d="M3.743,10.607c0.516-0.488,1.032-0.975,1.59-1.502c3.549,3.551,7.093,7.096,10.677,10.682
	c3.591-3.591,7.123-7.124,10.667-10.67c0.549,0.518,1.064,1.004,1.58,1.49c0,0.041,0,0.082,0,0.123
	c-0.167,0.145-0.343,0.281-0.498,0.437c-3.753,3.749-7.503,7.5-11.255,11.25c-0.156,0.155-0.319,0.303-0.503,0.478
	c-0.185-0.175-0.348-0.322-0.503-0.478c-3.752-3.75-7.502-7.502-11.255-11.251C4.086,11.01,3.91,10.875,3.743,10.73
	C3.743,10.689,3.743,10.648,3.743,10.607z"/>
</svg>
