<svg width="6" height="6" viewBox="0 0 6 6" fill="none" xmlns="http://www.w3.org/2000/svg">
<path d="M5.8233 4.97633C6.05765 5.21069 6.05765 5.59034 5.8233 5.8247C5.70705 5.94188 5.55332 6 5.39958 6C5.24584 6 5.09248 5.94141 4.97549 5.82423L2.99977 3.84954L1.02423 5.82376C0.907054 5.94188 0.753504 6 0.599953 6C0.446403 6 0.29304 5.94188 0.175768 5.82376C-0.0585892 5.58941 -0.0585892 5.20975 0.175768 4.97539L2.15186 2.9993L0.175768 1.02414C-0.0585892 0.789782 -0.0585892 0.410124 0.175768 0.175768C0.410124 -0.0585892 0.789782 -0.0585892 1.02414 0.175768L2.99977 2.1528L4.97586 0.176705C5.21022 -0.0576517 5.58988 -0.0576517 5.82423 0.176705C6.05859 0.411062 6.05859 0.790719 5.82423 1.02508L3.84814 3.00117L5.8233 4.97633Z" fill="#BFC7CB"/>
</svg>
