<svg width="17" height="16" viewBox="0 0 17 16" fill="none" xmlns="http://www.w3.org/2000/svg">
<g id="Info i">
<path id="Vector" d="M7.77575 11.3333H9.13271V7.33331H7.77575V11.3333ZM8.45423 5.99998C8.64647 5.99998 8.80761 5.93609 8.93765 5.80831C9.06769 5.68053 9.13271 5.5222 9.13271 5.33331C9.13271 5.14442 9.06769 4.98609 8.93765 4.85831C8.80761 4.73054 8.64647 4.66665 8.45423 4.66665C8.262 4.66665 8.10086 4.73054 7.97081 4.85831C7.84077 4.98609 7.77575 5.14442 7.77575 5.33331C7.77575 5.5222 7.84077 5.68053 7.97081 5.80831C8.10086 5.93609 8.262 5.99998 8.45423 5.99998ZM8.45423 14.6666C7.51567 14.6666 6.63364 14.4916 5.80816 14.1416C4.98268 13.7916 4.26462 13.3166 3.65399 12.7166C3.04336 12.1166 2.55994 11.4111 2.20374 10.6C1.84753 9.78887 1.66943 8.9222 1.66943 7.99998C1.66943 7.07776 1.84753 6.21109 2.20374 5.39998C2.55994 4.58887 3.04336 3.88331 3.65399 3.28331C4.26462 2.68331 4.98268 2.20831 5.80816 1.85831C6.63364 1.50831 7.51567 1.33331 8.45423 1.33331C9.39279 1.33331 10.2748 1.50831 11.1003 1.85831C11.9258 2.20831 12.6438 2.68331 13.2545 3.28331C13.8651 3.88331 14.3485 4.58887 14.7047 5.39998C15.0609 6.21109 15.239 7.07776 15.239 7.99998C15.239 8.9222 15.0609 9.78887 14.7047 10.6C14.3485 11.4111 13.8651 12.1166 13.2545 12.7166C12.6438 13.3166 11.9258 13.7916 11.1003 14.1416C10.2748 14.4916 9.39279 14.6666 8.45423 14.6666ZM8.45423 13.3333C9.9695 13.3333 11.253 12.8166 12.3046 11.7833C13.3562 10.75 13.8821 9.48887 13.8821 7.99998C13.8821 6.51109 13.3562 5.24998 12.3046 4.21665C11.253 3.18331 9.9695 2.66665 8.45423 2.66665C6.93896 2.66665 5.6555 3.18331 4.60386 4.21665C3.55221 5.24998 3.02639 6.51109 3.02639 7.99998C3.02639 9.48887 3.55221 10.75 4.60386 11.7833C5.6555 12.8166 6.93896 13.3333 8.45423 13.3333Z" fill="#5F6368"/>
</g>
</svg>
