<?xml version="1.0" encoding="utf-8"?>
<!-- Generator: Adobe Illustrator 22.0.0, SVG Export Plug-In . SVG Version: 6.00 Build 0)  -->
<svg version="1.1" id="Layer_1" xmlns="http://www.w3.org/2000/svg" xmlns:xlink="http://www.w3.org/1999/xlink" x="0px" y="0px"
	 viewBox="0 0 32 25" enable-background="new 0 0 32 25" xml:space="preserve">
<g>
	<path fill="#67B5AB" d="M16.033,23.563C11.777,18.938,7.539,14.31,3.985,9.11C2.669,7.184,1.427,5.212,0.26,3.115
		C0.75,3.169,1.172,3.22,1.594,3.261C2.97,3.393,4.345,3.528,5.723,3.645c0.234,0.02,0.338,0.12,0.428,0.32
		c2.123,4.712,5.095,8.82,8.828,12.384c1.186,1.132,2.419,2.213,3.707,3.229c0.216,0.17,0.254,0.272,0.065,0.508
		C17.837,21.227,16.947,22.388,16.033,23.563z"/>
	<path fill="#67B5AB" d="M31.74,2.889c-0.002,0.163-0.095,0.244-0.156,0.338c-1.265,1.952-2.607,3.85-3.996,5.715
		c-0.106,0.143-0.205,0.252-0.417,0.255c-4.236,0.058-8.112-1.018-11.504-3.63C15.151,5.169,14.66,4.741,14.2,4.279
		c-0.063-0.063-0.121-0.131-0.236-0.254C19.961,4.103,25.866,3.775,31.74,2.889z"/>
	<path fill="#67B5AB" d="M6.526,3.714c0.834,0.051,1.657,0.173,2.472,0.13c0.748-0.039,1.076,0.306,1.423,0.899
		c1.916,3.279,4.602,5.812,7.779,7.851c1.351,0.867,2.752,1.645,4.199,2.336c0.312,0.149,0.311,0.258,0.099,0.499
		c-0.384,0.436-0.743,0.893-1.102,1.351c-0.118,0.151-0.215,0.193-0.407,0.112c-4.037-1.69-7.568-4.099-10.5-7.364
		c-1.458-1.622-2.701-3.4-3.747-5.314C6.66,4.065,6.545,3.928,6.526,3.714z"/>
	<path fill="#67B5AB" d="M10.329,4.022c1.035,0,2.068,0.002,3.1-0.002c0.137,0,0.209,0.082,0.287,0.169
		c3.078,3.424,7.019,5.214,11.462,6.053c0.398,0.075,0.798,0.146,1.247,0.228c-0.511,0.655-1.002,1.284-1.493,1.913
		c-0.021,0.027-0.051,0.051-0.066,0.081c-0.323,0.663-0.806,0.68-1.476,0.512c-5.287-1.327-9.586-4.114-12.795-8.542
		c-0.082-0.113-0.159-0.229-0.236-0.345C10.34,4.061,10.331,4.027,10.329,4.022z"/>
</g>
</svg>
