<?xml version="1.0" encoding="utf-8"?>
<!-- Generator: Adobe Illustrator 22.0.0, SVG Export Plug-In . SVG Version: 6.00 Build 0)  -->
<svg version="1.1" id="Layer_1" xmlns="http://www.w3.org/2000/svg" xmlns:xlink="http://www.w3.org/1999/xlink" x="0px" y="0px"
	 viewBox="0 0 256 256" enable-background="new 0 0 256 256" xml:space="preserve">
<g>
	<path fill="#CCCCCC" d="M134,1c9.136,3.465,17.359,8.774,18.089,19.091c0.544,7.701,4.548,9.374,10.323,11.711
		c32.957,13.337,54.352,45.151,54.561,80.664c0.126,21.477,0.026,42.955,0.027,64.432c0.001,21.562,10.22,33.365,31.747,36.415
		c0,5.039,0,10.115,0,15.601c-28.293,0-56.363,0-84.557,0c-4.139,15.468-14.556,24.01-29.19,28.085c-4,0-8,0-12,0
		c-5.082-2.333-10.514-4.122-15.165-7.122c-7.411-4.78-11.6-12.205-14.072-20.963c-28.147,0-56.218,0-84.524,0
		c0-5.337,0-10.27,0-15.542c2.001-0.356,4.074-0.669,6.123-1.099c14.926-3.129,25.467-15.631,25.583-30.876
		c0.167-21.976,0.043-43.954,0.055-65.931c0.022-40.565,22.373-72.349,60.621-86.011c2.383-0.851,3.357-1.755,3.465-4.438
		c0.469-11.599,6.266-19.13,17.269-23.062C122.943,1.747,123.454,1.324,124,1C127.333,1,130.667,1,134,1z M213.127,212.887
		c-10.554-12.22-12.553-25.844-12.233-40.408c0.428-19.482,0.204-38.98,0.039-58.47c-0.043-5.132-0.401-10.363-1.462-15.369
		c-7.657-36.153-40.938-60.96-76.732-57.425c-37.704,3.724-65.574,34.349-65.725,72.333c-0.081,20.49-0.321,40.987,0.092,61.469
		c0.276,13.669-2.569,26.068-11.192,36.887c-0.126,0.158,0.093,0.591,0.168,0.984C101.367,212.887,156.657,212.887,213.127,212.887z
		 M111.417,229.241c3.105,7.75,10.617,12.298,19.046,11.712c7.556-0.525,14.447-5.666,15.781-11.712
		C134.675,229.241,123.092,229.241,111.417,229.241z M121.101,24.77c5.581,0,10.615,0,15.911,0
		c-0.882-4.951-3.494-7.727-8.104-7.652C124.344,17.193,121.686,19.895,121.101,24.77z"/>
</g>
</svg>
