<svg width="15" height="16" viewBox="0 0 15 16" fill="none" xmlns="http://www.w3.org/2000/svg">
<path d="M12.7946 2.20812C11.2649 0.678432 9.0971 -0.203719 6.71341 0.0402804C3.26927 0.38751 0.435129 3.18412 0.0503613 6.62826C-0.465791 11.1798 3.05343 15.0181 7.49233 15.0181C10.486 15.0181 13.0574 13.2632 14.2586 10.7387C14.5589 10.1099 14.1085 9.38732 13.414 9.38732C13.0668 9.38732 12.7383 9.57502 12.5882 9.88471C11.5277 12.1652 8.98448 13.6104 6.20665 12.991C4.12327 12.5312 2.44343 10.8326 2.00235 8.74917C1.21405 5.10795 3.9825 1.87966 7.49233 1.87966C9.05017 1.87966 10.4391 2.52719 11.4526 3.55011L10.0356 4.96719C9.44433 5.55841 9.85725 6.57195 10.6925 6.57195H14.0615C14.5777 6.57195 15 6.14964 15 5.63349V2.26443C15 1.4292 13.9865 1.00689 13.3952 1.59812L12.7946 2.20812Z" fill="#1A2430"/>
</svg>
