<svg width="20" height="18" viewBox="0 0 20 18" fill="none" xmlns="http://www.w3.org/2000/svg">
<path d="M19.7767 15.2896L11.4444 1.07034C10.8065 -0.0234473 9.19663 -0.0234473 8.55442 1.07034L0.225998 15.2896C-0.41504 16.3795 0.383387 17.7506 1.66824 17.7506H18.3329C19.6126 17.7506 20.4134 16.3834 19.7767 15.2896ZM9.06147 5.56269C9.06147 5.04509 9.48141 4.62516 9.99901 4.62516C10.5166 4.62516 10.9365 5.04705 10.9365 5.56269V10.5629C10.9365 11.0805 10.5166 11.5004 10.0342 11.5004C9.55172 11.5004 9.06147 11.0824 9.06147 10.5629V5.56269ZM9.99901 15.2505C9.32086 15.2505 8.77084 14.7005 8.77084 14.0224C8.77084 13.3442 9.32047 12.7942 9.99901 12.7942C10.6775 12.7942 11.2272 13.3442 11.2272 14.0224C11.2256 14.6997 10.6787 15.2505 9.99901 15.2505Z" fill="#F8857F"/>
</svg>
